<mxfile host="app.diagrams.net" agent="Mozilla/5.0 (X11; Ubuntu; Linux x86_64; rv:129.0) Gecko/20100101 Firefox/129.0" version="25.0.3">
  <diagram name="Página-1" id="NELY53XR4MO8g4t2SHLE">
    <mxGraphModel dx="1860" dy="598" grid="1" gridSize="10" guides="1" tooltips="1" connect="1" arrows="1" fold="1" page="1" pageScale="1" pageWidth="827" pageHeight="1169" background="#000000" math="0" shadow="0">
      <root>
        <mxCell id="0" />
        <mxCell id="1" parent="0" />
        <mxCell id="ikBRi7F1UD_179oe65fV-26" style="edgeStyle=orthogonalEdgeStyle;rounded=0;orthogonalLoop=1;jettySize=auto;html=1;exitX=0.5;exitY=1;exitDx=0;exitDy=0;entryX=0.5;entryY=0;entryDx=0;entryDy=0;strokeColor=#FFFFFF;" parent="1" source="ikBRi7F1UD_179oe65fV-1" target="ikBRi7F1UD_179oe65fV-5" edge="1">
          <mxGeometry relative="1" as="geometry" />
        </mxCell>
        <mxCell id="ikBRi7F1UD_179oe65fV-33" style="edgeStyle=orthogonalEdgeStyle;rounded=0;orthogonalLoop=1;jettySize=auto;html=1;exitX=0.5;exitY=1;exitDx=0;exitDy=0;entryX=0.5;entryY=0;entryDx=0;entryDy=0;strokeColor=#FFFFFF;" parent="1" source="ikBRi7F1UD_179oe65fV-1" target="ikBRi7F1UD_179oe65fV-4" edge="1">
          <mxGeometry relative="1" as="geometry">
            <Array as="points">
              <mxPoint x="420" y="180" />
              <mxPoint x="260" y="180" />
            </Array>
          </mxGeometry>
        </mxCell>
        <mxCell id="ikBRi7F1UD_179oe65fV-34" style="edgeStyle=orthogonalEdgeStyle;rounded=0;orthogonalLoop=1;jettySize=auto;html=1;exitX=0.5;exitY=1;exitDx=0;exitDy=0;entryX=0.5;entryY=0;entryDx=0;entryDy=0;strokeColor=#FFFFFF;" parent="1" source="ikBRi7F1UD_179oe65fV-1" target="ikBRi7F1UD_179oe65fV-3" edge="1">
          <mxGeometry relative="1" as="geometry">
            <Array as="points">
              <mxPoint x="420" y="180" />
              <mxPoint x="100" y="180" />
            </Array>
          </mxGeometry>
        </mxCell>
        <mxCell id="As3P0ESqiA9BSRKNIptW-18" style="edgeStyle=orthogonalEdgeStyle;rounded=0;orthogonalLoop=1;jettySize=auto;html=1;exitX=0.5;exitY=1;exitDx=0;exitDy=0;entryX=0.5;entryY=0;entryDx=0;entryDy=0;strokeColor=#FFFFFF;" edge="1" parent="1" source="ikBRi7F1UD_179oe65fV-1" target="ikBRi7F1UD_179oe65fV-6">
          <mxGeometry relative="1" as="geometry">
            <Array as="points">
              <mxPoint x="420" y="180" />
              <mxPoint x="580" y="180" />
            </Array>
          </mxGeometry>
        </mxCell>
        <mxCell id="As3P0ESqiA9BSRKNIptW-23" style="edgeStyle=orthogonalEdgeStyle;rounded=0;orthogonalLoop=1;jettySize=auto;html=1;exitX=0.5;exitY=1;exitDx=0;exitDy=0;entryX=0.5;entryY=0;entryDx=0;entryDy=0;strokeColor=#FFFFFF;" edge="1" parent="1" source="ikBRi7F1UD_179oe65fV-1" target="ikBRi7F1UD_179oe65fV-7">
          <mxGeometry relative="1" as="geometry">
            <Array as="points">
              <mxPoint x="420" y="180" />
              <mxPoint x="740" y="180" />
            </Array>
          </mxGeometry>
        </mxCell>
        <mxCell id="ikBRi7F1UD_179oe65fV-1" value="1. Desenvolvimento da Logística do Almoço" style="rounded=0;whiteSpace=wrap;html=1;fillColor=#f8cecc;strokeColor=#b85450;" parent="1" vertex="1">
          <mxGeometry x="360" y="100" width="120" height="60" as="geometry" />
        </mxCell>
        <mxCell id="As3P0ESqiA9BSRKNIptW-3" style="edgeStyle=orthogonalEdgeStyle;rounded=0;orthogonalLoop=1;jettySize=auto;html=1;exitX=0.5;exitY=1;exitDx=0;exitDy=0;entryX=1;entryY=0.5;entryDx=0;entryDy=0;strokeColor=#FFFFFF;" edge="1" parent="1" source="ikBRi7F1UD_179oe65fV-3" target="ikBRi7F1UD_179oe65fV-58">
          <mxGeometry relative="1" as="geometry" />
        </mxCell>
        <mxCell id="As3P0ESqiA9BSRKNIptW-4" style="edgeStyle=orthogonalEdgeStyle;rounded=0;orthogonalLoop=1;jettySize=auto;html=1;exitX=0.5;exitY=1;exitDx=0;exitDy=0;entryX=1;entryY=0.5;entryDx=0;entryDy=0;strokeColor=#FFFFFF;" edge="1" parent="1" source="ikBRi7F1UD_179oe65fV-3" target="ikBRi7F1UD_179oe65fV-8">
          <mxGeometry relative="1" as="geometry" />
        </mxCell>
        <mxCell id="As3P0ESqiA9BSRKNIptW-5" style="edgeStyle=orthogonalEdgeStyle;rounded=0;orthogonalLoop=1;jettySize=auto;html=1;exitX=0.5;exitY=1;exitDx=0;exitDy=0;entryX=1;entryY=0.5;entryDx=0;entryDy=0;strokeColor=#FFFFFF;" edge="1" parent="1" source="ikBRi7F1UD_179oe65fV-3" target="ikBRi7F1UD_179oe65fV-9">
          <mxGeometry relative="1" as="geometry" />
        </mxCell>
        <mxCell id="As3P0ESqiA9BSRKNIptW-6" style="edgeStyle=orthogonalEdgeStyle;rounded=0;orthogonalLoop=1;jettySize=auto;html=1;exitX=0.5;exitY=1;exitDx=0;exitDy=0;entryX=1;entryY=0.5;entryDx=0;entryDy=0;strokeColor=#FFFFFF;" edge="1" parent="1" source="ikBRi7F1UD_179oe65fV-3" target="ikBRi7F1UD_179oe65fV-10">
          <mxGeometry relative="1" as="geometry" />
        </mxCell>
        <mxCell id="As3P0ESqiA9BSRKNIptW-7" style="edgeStyle=orthogonalEdgeStyle;rounded=0;orthogonalLoop=1;jettySize=auto;html=1;exitX=0.5;exitY=1;exitDx=0;exitDy=0;entryX=1;entryY=0.5;entryDx=0;entryDy=0;strokeColor=#FFFFFF;" edge="1" parent="1" source="ikBRi7F1UD_179oe65fV-3" target="ikBRi7F1UD_179oe65fV-11">
          <mxGeometry relative="1" as="geometry" />
        </mxCell>
        <mxCell id="ikBRi7F1UD_179oe65fV-3" value="1.1 Planejamento" style="rounded=0;whiteSpace=wrap;html=1;fillColor=#dae8fc;strokeColor=#6c8ebf;" parent="1" vertex="1">
          <mxGeometry x="40" y="200" width="120" height="60" as="geometry" />
        </mxCell>
        <mxCell id="As3P0ESqiA9BSRKNIptW-8" style="edgeStyle=orthogonalEdgeStyle;rounded=0;orthogonalLoop=1;jettySize=auto;html=1;exitX=0.5;exitY=1;exitDx=0;exitDy=0;entryX=1;entryY=0.5;entryDx=0;entryDy=0;strokeColor=#FFFFFF;" edge="1" parent="1" source="ikBRi7F1UD_179oe65fV-4" target="ikBRi7F1UD_179oe65fV-13">
          <mxGeometry relative="1" as="geometry" />
        </mxCell>
        <mxCell id="As3P0ESqiA9BSRKNIptW-9" style="edgeStyle=orthogonalEdgeStyle;rounded=0;orthogonalLoop=1;jettySize=auto;html=1;exitX=0.5;exitY=1;exitDx=0;exitDy=0;entryX=1;entryY=0.5;entryDx=0;entryDy=0;strokeColor=#FFFFFF;" edge="1" parent="1" source="ikBRi7F1UD_179oe65fV-4" target="ikBRi7F1UD_179oe65fV-14">
          <mxGeometry relative="1" as="geometry" />
        </mxCell>
        <mxCell id="As3P0ESqiA9BSRKNIptW-10" style="edgeStyle=orthogonalEdgeStyle;rounded=0;orthogonalLoop=1;jettySize=auto;html=1;exitX=0.5;exitY=1;exitDx=0;exitDy=0;entryX=1;entryY=0.5;entryDx=0;entryDy=0;strokeColor=#FFFFFF;" edge="1" parent="1" source="ikBRi7F1UD_179oe65fV-4" target="ikBRi7F1UD_179oe65fV-15">
          <mxGeometry relative="1" as="geometry" />
        </mxCell>
        <mxCell id="As3P0ESqiA9BSRKNIptW-11" style="edgeStyle=orthogonalEdgeStyle;rounded=0;orthogonalLoop=1;jettySize=auto;html=1;exitX=0.5;exitY=1;exitDx=0;exitDy=0;entryX=1;entryY=0.5;entryDx=0;entryDy=0;strokeColor=#FFFFFF;" edge="1" parent="1" source="ikBRi7F1UD_179oe65fV-4" target="ikBRi7F1UD_179oe65fV-16">
          <mxGeometry relative="1" as="geometry" />
        </mxCell>
        <mxCell id="As3P0ESqiA9BSRKNIptW-12" style="edgeStyle=orthogonalEdgeStyle;rounded=0;orthogonalLoop=1;jettySize=auto;html=1;exitX=0.5;exitY=1;exitDx=0;exitDy=0;entryX=1;entryY=0.5;entryDx=0;entryDy=0;strokeColor=#FFFFFF;" edge="1" parent="1" source="ikBRi7F1UD_179oe65fV-4" target="ikBRi7F1UD_179oe65fV-62">
          <mxGeometry relative="1" as="geometry" />
        </mxCell>
        <mxCell id="ikBRi7F1UD_179oe65fV-4" value="1.2 Desenvolvimento" style="rounded=0;whiteSpace=wrap;html=1;fillColor=#dae8fc;strokeColor=#6c8ebf;" parent="1" vertex="1">
          <mxGeometry x="200" y="200" width="120" height="60" as="geometry" />
        </mxCell>
        <mxCell id="As3P0ESqiA9BSRKNIptW-13" style="edgeStyle=orthogonalEdgeStyle;rounded=0;orthogonalLoop=1;jettySize=auto;html=1;exitX=0.5;exitY=1;exitDx=0;exitDy=0;entryX=1;entryY=0.5;entryDx=0;entryDy=0;strokeColor=#FFFFFF;" edge="1" parent="1" source="ikBRi7F1UD_179oe65fV-5" target="ikBRi7F1UD_179oe65fV-18">
          <mxGeometry relative="1" as="geometry" />
        </mxCell>
        <mxCell id="As3P0ESqiA9BSRKNIptW-14" style="edgeStyle=orthogonalEdgeStyle;rounded=0;orthogonalLoop=1;jettySize=auto;html=1;exitX=0.5;exitY=1;exitDx=0;exitDy=0;entryX=1;entryY=0.5;entryDx=0;entryDy=0;strokeColor=#FFFFFF;" edge="1" parent="1" source="ikBRi7F1UD_179oe65fV-5" target="ikBRi7F1UD_179oe65fV-19">
          <mxGeometry relative="1" as="geometry" />
        </mxCell>
        <mxCell id="As3P0ESqiA9BSRKNIptW-15" style="edgeStyle=orthogonalEdgeStyle;rounded=0;orthogonalLoop=1;jettySize=auto;html=1;exitX=0.5;exitY=1;exitDx=0;exitDy=0;entryX=1;entryY=0.5;entryDx=0;entryDy=0;strokeColor=#FFFFFF;" edge="1" parent="1" source="ikBRi7F1UD_179oe65fV-5" target="ikBRi7F1UD_179oe65fV-64">
          <mxGeometry relative="1" as="geometry" />
        </mxCell>
        <mxCell id="As3P0ESqiA9BSRKNIptW-16" style="edgeStyle=orthogonalEdgeStyle;rounded=0;orthogonalLoop=1;jettySize=auto;html=1;exitX=0.5;exitY=1;exitDx=0;exitDy=0;entryX=1;entryY=0.5;entryDx=0;entryDy=0;strokeColor=#FFFFFF;" edge="1" parent="1" source="ikBRi7F1UD_179oe65fV-5" target="ikBRi7F1UD_179oe65fV-65">
          <mxGeometry relative="1" as="geometry" />
        </mxCell>
        <mxCell id="ikBRi7F1UD_179oe65fV-5" value="1.3 Testes" style="rounded=0;whiteSpace=wrap;html=1;fillColor=#dae8fc;strokeColor=#6c8ebf;" parent="1" vertex="1">
          <mxGeometry x="360" y="200" width="120" height="60" as="geometry" />
        </mxCell>
        <mxCell id="As3P0ESqiA9BSRKNIptW-17" style="edgeStyle=orthogonalEdgeStyle;rounded=0;orthogonalLoop=1;jettySize=auto;html=1;exitX=0.5;exitY=1;exitDx=0;exitDy=0;entryX=1;entryY=0.5;entryDx=0;entryDy=0;" edge="1" parent="1" source="ikBRi7F1UD_179oe65fV-6" target="ikBRi7F1UD_179oe65fV-20">
          <mxGeometry relative="1" as="geometry" />
        </mxCell>
        <mxCell id="As3P0ESqiA9BSRKNIptW-19" style="edgeStyle=orthogonalEdgeStyle;rounded=0;orthogonalLoop=1;jettySize=auto;html=1;exitX=0.5;exitY=1;exitDx=0;exitDy=0;entryX=1;entryY=0.5;entryDx=0;entryDy=0;strokeColor=#FFFFFF;" edge="1" parent="1" source="ikBRi7F1UD_179oe65fV-6" target="ikBRi7F1UD_179oe65fV-20">
          <mxGeometry relative="1" as="geometry" />
        </mxCell>
        <mxCell id="As3P0ESqiA9BSRKNIptW-20" style="edgeStyle=orthogonalEdgeStyle;rounded=0;orthogonalLoop=1;jettySize=auto;html=1;exitX=0.5;exitY=1;exitDx=0;exitDy=0;entryX=1;entryY=0.5;entryDx=0;entryDy=0;strokeColor=#FFFFFF;" edge="1" parent="1" source="ikBRi7F1UD_179oe65fV-6" target="ikBRi7F1UD_179oe65fV-21">
          <mxGeometry relative="1" as="geometry" />
        </mxCell>
        <mxCell id="As3P0ESqiA9BSRKNIptW-21" style="edgeStyle=orthogonalEdgeStyle;rounded=0;orthogonalLoop=1;jettySize=auto;html=1;exitX=0.5;exitY=1;exitDx=0;exitDy=0;entryX=1;entryY=0.5;entryDx=0;entryDy=0;strokeColor=#FFFFFF;" edge="1" parent="1" source="ikBRi7F1UD_179oe65fV-6" target="ikBRi7F1UD_179oe65fV-22">
          <mxGeometry relative="1" as="geometry" />
        </mxCell>
        <mxCell id="As3P0ESqiA9BSRKNIptW-22" style="edgeStyle=orthogonalEdgeStyle;rounded=0;orthogonalLoop=1;jettySize=auto;html=1;exitX=0.5;exitY=1;exitDx=0;exitDy=0;entryX=1;entryY=0.5;entryDx=0;entryDy=0;strokeColor=#FFFFFF;" edge="1" parent="1" source="ikBRi7F1UD_179oe65fV-6" target="ikBRi7F1UD_179oe65fV-23">
          <mxGeometry relative="1" as="geometry" />
        </mxCell>
        <mxCell id="ikBRi7F1UD_179oe65fV-6" value="1.4 Implantação" style="rounded=0;whiteSpace=wrap;html=1;fillColor=#dae8fc;strokeColor=#6c8ebf;" parent="1" vertex="1">
          <mxGeometry x="520" y="200" width="120" height="60" as="geometry" />
        </mxCell>
        <mxCell id="As3P0ESqiA9BSRKNIptW-25" style="edgeStyle=orthogonalEdgeStyle;rounded=0;orthogonalLoop=1;jettySize=auto;html=1;exitX=0.5;exitY=1;exitDx=0;exitDy=0;entryX=1;entryY=0.5;entryDx=0;entryDy=0;strokeColor=#FFFFFF;" edge="1" parent="1" source="ikBRi7F1UD_179oe65fV-7" target="ikBRi7F1UD_179oe65fV-69">
          <mxGeometry relative="1" as="geometry" />
        </mxCell>
        <mxCell id="As3P0ESqiA9BSRKNIptW-26" style="edgeStyle=orthogonalEdgeStyle;rounded=0;orthogonalLoop=1;jettySize=auto;html=1;exitX=0.5;exitY=1;exitDx=0;exitDy=0;entryX=1;entryY=0.5;entryDx=0;entryDy=0;strokeColor=#FFFFFF;" edge="1" parent="1" source="ikBRi7F1UD_179oe65fV-7" target="ikBRi7F1UD_179oe65fV-70">
          <mxGeometry relative="1" as="geometry" />
        </mxCell>
        <mxCell id="As3P0ESqiA9BSRKNIptW-27" style="edgeStyle=orthogonalEdgeStyle;rounded=0;orthogonalLoop=1;jettySize=auto;html=1;exitX=0.5;exitY=1;exitDx=0;exitDy=0;entryX=1;entryY=0.5;entryDx=0;entryDy=0;strokeColor=#FFFFFF;" edge="1" parent="1" source="ikBRi7F1UD_179oe65fV-7" target="ikBRi7F1UD_179oe65fV-72">
          <mxGeometry relative="1" as="geometry" />
        </mxCell>
        <mxCell id="As3P0ESqiA9BSRKNIptW-28" style="edgeStyle=orthogonalEdgeStyle;rounded=0;orthogonalLoop=1;jettySize=auto;html=1;exitX=0.5;exitY=1;exitDx=0;exitDy=0;entryX=1;entryY=0.5;entryDx=0;entryDy=0;strokeColor=#FFFFFF;" edge="1" parent="1" source="ikBRi7F1UD_179oe65fV-7" target="ikBRi7F1UD_179oe65fV-71">
          <mxGeometry relative="1" as="geometry" />
        </mxCell>
        <mxCell id="As3P0ESqiA9BSRKNIptW-29" style="edgeStyle=orthogonalEdgeStyle;rounded=0;orthogonalLoop=1;jettySize=auto;html=1;exitX=0.5;exitY=1;exitDx=0;exitDy=0;entryX=1;entryY=0.5;entryDx=0;entryDy=0;strokeColor=#FFFFFF;" edge="1" parent="1" source="ikBRi7F1UD_179oe65fV-7" target="ikBRi7F1UD_179oe65fV-73">
          <mxGeometry relative="1" as="geometry" />
        </mxCell>
        <mxCell id="ikBRi7F1UD_179oe65fV-7" value="1.5 Treinamento e Suporte" style="rounded=0;whiteSpace=wrap;html=1;fillColor=#dae8fc;strokeColor=#6c8ebf;" parent="1" vertex="1">
          <mxGeometry x="680" y="200" width="120" height="60" as="geometry" />
        </mxCell>
        <mxCell id="ikBRi7F1UD_179oe65fV-8" value="1.1.2 Análise de Viabilidade" style="rounded=0;whiteSpace=wrap;html=1;fillColor=#d5e8d4;strokeColor=#82b366;" parent="1" vertex="1">
          <mxGeometry x="-40" y="360" width="120" height="60" as="geometry" />
        </mxCell>
        <mxCell id="ikBRi7F1UD_179oe65fV-9" value="1.1.3 Definição do Escopo" style="rounded=0;whiteSpace=wrap;html=1;fillColor=#d5e8d4;strokeColor=#82b366;" parent="1" vertex="1">
          <mxGeometry x="-40" y="440" width="120" height="60" as="geometry" />
        </mxCell>
        <mxCell id="ikBRi7F1UD_179oe65fV-10" value="1.1.4 Definição do Cronograma" style="rounded=0;whiteSpace=wrap;html=1;fillColor=#d5e8d4;strokeColor=#82b366;" parent="1" vertex="1">
          <mxGeometry x="-40" y="520" width="120" height="60" as="geometry" />
        </mxCell>
        <mxCell id="ikBRi7F1UD_179oe65fV-11" value="1.1.5 Contratação e Seleção" style="rounded=0;whiteSpace=wrap;html=1;fillColor=#d5e8d4;strokeColor=#82b366;" parent="1" vertex="1">
          <mxGeometry x="-40" y="600" width="120" height="60" as="geometry" />
        </mxCell>
        <mxCell id="ikBRi7F1UD_179oe65fV-13" value="1.2.1 Arquitetura e Design" style="rounded=0;whiteSpace=wrap;html=1;fillColor=#d5e8d4;strokeColor=#82b366;" parent="1" vertex="1">
          <mxGeometry x="120" y="280" width="120" height="60" as="geometry" />
        </mxCell>
        <mxCell id="ikBRi7F1UD_179oe65fV-14" value="1.2.2 Cadastro dos Alunos no Sistema" style="rounded=0;whiteSpace=wrap;html=1;fillColor=#d5e8d4;strokeColor=#82b366;" parent="1" vertex="1">
          <mxGeometry x="120" y="360" width="120" height="60" as="geometry" />
        </mxCell>
        <mxCell id="ikBRi7F1UD_179oe65fV-15" value="1.2.3 Registro do Saldo do Cartão" style="rounded=0;whiteSpace=wrap;html=1;fillColor=#d5e8d4;strokeColor=#82b366;" parent="1" vertex="1">
          <mxGeometry x="120" y="440" width="120" height="60" as="geometry" />
        </mxCell>
        <mxCell id="ikBRi7F1UD_179oe65fV-16" value="1.2.4 Cadastro do Histórico de Compra dos Alunos" style="rounded=0;whiteSpace=wrap;html=1;fillColor=#d5e8d4;strokeColor=#82b366;" parent="1" vertex="1">
          <mxGeometry x="120" y="520" width="120" height="60" as="geometry" />
        </mxCell>
        <mxCell id="ikBRi7F1UD_179oe65fV-18" value="1.3.1 Testes de Integração" style="rounded=0;whiteSpace=wrap;html=1;fillColor=#d5e8d4;strokeColor=#82b366;" parent="1" vertex="1">
          <mxGeometry x="280" y="280" width="120" height="60" as="geometry" />
        </mxCell>
        <mxCell id="ikBRi7F1UD_179oe65fV-19" value="1.3.2 Testes de Usabilidade" style="rounded=0;whiteSpace=wrap;html=1;fillColor=#d5e8d4;strokeColor=#82b366;" parent="1" vertex="1">
          <mxGeometry x="280" y="360" width="120" height="60" as="geometry" />
        </mxCell>
        <mxCell id="ikBRi7F1UD_179oe65fV-20" value="1.4.1 Hospedagem em Produção" style="rounded=0;whiteSpace=wrap;html=1;fillColor=#d5e8d4;strokeColor=#82b366;" parent="1" vertex="1">
          <mxGeometry x="440" y="280" width="120" height="60" as="geometry" />
        </mxCell>
        <mxCell id="ikBRi7F1UD_179oe65fV-21" value="1.4.2 Configuração do Banco de Dados" style="rounded=0;whiteSpace=wrap;html=1;fillColor=#d5e8d4;strokeColor=#82b366;" parent="1" vertex="1">
          <mxGeometry x="440" y="360" width="120" height="60" as="geometry" />
        </mxCell>
        <mxCell id="ikBRi7F1UD_179oe65fV-22" value="1.4.3 Configuração do Backup" style="rounded=0;whiteSpace=wrap;html=1;fillColor=#d5e8d4;strokeColor=#82b366;" parent="1" vertex="1">
          <mxGeometry x="440" y="440" width="120" height="60" as="geometry" />
        </mxCell>
        <mxCell id="ikBRi7F1UD_179oe65fV-23" value="1.4.4 Disponibilização pro Usuário" style="rounded=0;whiteSpace=wrap;html=1;fillColor=#d5e8d4;strokeColor=#82b366;" parent="1" vertex="1">
          <mxGeometry x="440" y="520" width="120" height="60" as="geometry" />
        </mxCell>
        <mxCell id="ikBRi7F1UD_179oe65fV-58" value="1.1.1 Levantamento de Requisitos" style="rounded=0;whiteSpace=wrap;html=1;fillColor=#d5e8d4;strokeColor=#82b366;" parent="1" vertex="1">
          <mxGeometry x="-40" y="280" width="120" height="60" as="geometry" />
        </mxCell>
        <mxCell id="ikBRi7F1UD_179oe65fV-62" value="1.2.5 Canal de Comunicação Aluno-Suporte" style="rounded=0;whiteSpace=wrap;html=1;fillColor=#d5e8d4;strokeColor=#82b366;" parent="1" vertex="1">
          <mxGeometry x="120" y="600" width="120" height="60" as="geometry" />
        </mxCell>
        <mxCell id="ikBRi7F1UD_179oe65fV-63" style="edgeStyle=orthogonalEdgeStyle;rounded=0;orthogonalLoop=1;jettySize=auto;html=1;exitX=0.5;exitY=1;exitDx=0;exitDy=0;" parent="1" source="ikBRi7F1UD_179oe65fV-23" target="ikBRi7F1UD_179oe65fV-23" edge="1">
          <mxGeometry relative="1" as="geometry" />
        </mxCell>
        <mxCell id="ikBRi7F1UD_179oe65fV-64" value="1.3.3 Testes de Segurança" style="rounded=0;whiteSpace=wrap;html=1;fillColor=#d5e8d4;strokeColor=#82b366;" parent="1" vertex="1">
          <mxGeometry x="280" y="440" width="120" height="60" as="geometry" />
        </mxCell>
        <mxCell id="ikBRi7F1UD_179oe65fV-65" value="1.3.4 Testes de Perfomance" style="rounded=0;whiteSpace=wrap;html=1;fillColor=#d5e8d4;strokeColor=#82b366;" parent="1" vertex="1">
          <mxGeometry x="280" y="520" width="120" height="60" as="geometry" />
        </mxCell>
        <mxCell id="ikBRi7F1UD_179oe65fV-69" value="1.5.1 Criação de um Manual de Usuário" style="rounded=0;whiteSpace=wrap;html=1;fillColor=#d5e8d4;strokeColor=#82b366;" parent="1" vertex="1">
          <mxGeometry x="600" y="280" width="120" height="60" as="geometry" />
        </mxCell>
        <mxCell id="ikBRi7F1UD_179oe65fV-70" value="1.5.2 Criação de um FAQ " style="rounded=0;whiteSpace=wrap;html=1;fillColor=#d5e8d4;strokeColor=#82b366;" parent="1" vertex="1">
          <mxGeometry x="600" y="360" width="120" height="60" as="geometry" />
        </mxCell>
        <mxCell id="ikBRi7F1UD_179oe65fV-71" value="1.5.4 Treinamento de Funcionários para Suporte" style="rounded=0;whiteSpace=wrap;html=1;fillColor=#d5e8d4;strokeColor=#82b366;" parent="1" vertex="1">
          <mxGeometry x="600" y="520" width="120" height="60" as="geometry" />
        </mxCell>
        <mxCell id="ikBRi7F1UD_179oe65fV-72" value="1.5.3 Criação de Vídeos Tutoriais" style="rounded=0;whiteSpace=wrap;html=1;fillColor=#d5e8d4;strokeColor=#82b366;" parent="1" vertex="1">
          <mxGeometry x="600" y="440" width="120" height="60" as="geometry" />
        </mxCell>
        <mxCell id="ikBRi7F1UD_179oe65fV-73" value="1.5.5 Aba de Feedback e Melhorias" style="rounded=0;whiteSpace=wrap;html=1;fillColor=#d5e8d4;strokeColor=#82b366;" parent="1" vertex="1">
          <mxGeometry x="600" y="600" width="120" height="60" as="geometry" />
        </mxCell>
      </root>
    </mxGraphModel>
  </diagram>
</mxfile>
